<?xml version="1.0" standalone="no"?>
<!DOCTYPE svg PUBLIC "-//W3C//DTD SVG 20010904//EN"
 "http://www.w3.org/TR/2001/REC-SVG-20010904/DTD/svg10.dtd">
<svg version="1.0" xmlns="http://www.w3.org/2000/svg"
 width="912.000000pt" height="1280.000000pt" viewBox="0 0 912.000000 1280.000000"
 preserveAspectRatio="xMidYMid meet">
<metadata>
Created by potrace 1.15, written by Peter Selinger 2001-2017
</metadata>
<g transform="translate(0.000000,1280.000000) scale(0.100000,-0.100000)"
fill="#000000" stroke="none">
<path d="M4480 12793 c-780 -56 -1508 -355 -2090 -858 -631 -547 -1047 -1282
-1190 -2103 -47 -271 -50 -357 -50 -1519 l0 -1093 -455 0 -455 0 2 -3549 3
-3549 2945 -2 c1620 -2 3617 -2 4438 -1 l1492 1 0 3550 0 3550 -419 0 -420 0
-4 1148 c-4 1215 -4 1210 -53 1487 -301 1703 -1809 2960 -3529 2943 -93 -1
-190 -3 -215 -5z m545 -1418 c476 -74 878 -278 1215 -615 339 -339 534 -726
617 -1220 15 -95 17 -215 20 -1212 l4 -1108 -2166 0 -2166 0 3 1133 3 1132 27
135 c73 364 200 649 417 935 65 85 240 265 346 353 316 265 730 436 1168 482
113 12 391 4 512 -15z"/>
</g>
</svg>
